<svg id="Layer_1" data-name="Layer 1" xmlns="http://www.w3.org/2000/svg" viewBox="0 0 64.14 33.4"><defs><style>.cls-1{fill:#62ba46;}.cls-2{fill:#0f76bc;}</style></defs><g id="LifePlus_BD" data-name="LifePlus BD"><g id="Group_3" data-name="Group 3"><g id="Group_1" data-name="Group 1"><path id="Path_1" data-name="Path 1" class="cls-1" d="M329.93,254.57c-3.5,0-4.78-1.3-4.78-4.71V232.24h4.78v17.89h6.77v4.42h-6.77Z" transform="translate(-325.15 -221.23)"/><path id="Path_2" data-name="Path 2" class="cls-2" d="M343.12,236.38a2.37,2.37,0,1,1-2.32-2.33h0a2.33,2.33,0,0,1,2.32,2.33Zm-.07,18h-4.16V240.13h4.18l0,14.23Z" transform="translate(-325.15 -221.23)"/><path id="Path_3" data-name="Path 3" class="cls-1" d="M347.05,254.57V244h-2.59v-3.84h2.39v-2.37a5.25,5.25,0,0,1,1.85-4.06,6.06,6.06,0,0,1,4.57-1.46h1v3.66h-.44c-1.79,0-2.55.68-2.55,2.23v2h3V244h-3v10.58l-4.18,0Z" transform="translate(-325.15 -221.23)"/><path id="Path_4" data-name="Path 4" class="cls-2" d="M369.6,249.93a7.54,7.54,0,1,1-7.13-9.92c3.86,0,7.4,3,7.4,6.34,0,1.49-3.32,2.43-3.32,2.43h-7.23a3.35,3.35,0,0,0,5.52,1l4.76.19Zm-4.19-4a3,3,0,0,0-3-2.06,3.22,3.22,0,0,0-3.11,2.06Z" transform="translate(-325.15 -221.23)"/></g><g id="Group_2" data-name="Group 2"><path id="Path_5" data-name="Path 5" class="cls-1" d="M371.34,234.36h6.37v12.38a6.5,6.5,0,0,1-6.37-5.18Z" transform="translate(-325.15 -221.23)"/><path id="Path_6" data-name="Path 6" class="cls-1" d="M377.71,233.4h-6.37V221.23a6.49,6.49,0,0,1,6.37,5.1v7.07Z" transform="translate(-325.15 -221.23)"/><path id="Path_7" data-name="Path 7" class="cls-2" d="M378.51,237.24v-6.15h8.89s.35,5-5.25,6.15Z" transform="translate(-325.15 -221.23)"/><path id="Path_8" data-name="Path 8" class="cls-2" d="M370.34,231.09v6.15h-8.89s-.35-5,5.25-6.15Z" transform="translate(-325.15 -221.23)"/></g></g></g><path class="cls-2" d="M372.42,250.28h-1.49l.18-.86h4l-.19.86h-1.49l-.89,4.26h-1.05Z" transform="translate(-325.15 -221.23)"/><path class="cls-2" d="M378.53,252.3h-2.3l-.29,1.38h2.62l-.31.86h-3.52l1.08-5.12h3.44l-.19.86h-2.4l-.25,1.16h2.31Z" transform="translate(-325.15 -221.23)"/><path class="cls-2" d="M383.65,252.94a2.27,2.27,0,0,1-2.35,1.67,1.82,1.82,0,0,1-1.92-2.07c0-1.33.77-3.19,2.75-3.19A1.67,1.67,0,0,1,384,251h-1.09a.8.8,0,0,0-.91-.85c-1,0-1.51,1.29-1.51,2.35,0,.69.23,1.23.92,1.23a1.19,1.19,0,0,0,1.13-.83Z" transform="translate(-325.15 -221.23)"/><path class="cls-2" d="M385.21,249.42h1l-.42,2h2l.42-2h1.05l-1.09,5.12h-1l.48-2.28h-2l-.48,2.28h-1.05Z" transform="translate(-325.15 -221.23)"/></svg>